<mxfile host="app.diagrams.net" agent="Mozilla/5.0 (Macintosh; Intel Mac OS X 10_15_7) AppleWebKit/605.1.15 (KHTML, like Gecko) Version/18.4 Safari/605.1.15" version="26.2.9">
  <diagram name="Page-1" id="b5b7bab2-c9e2-2cf4-8b2a-24fd1a2a6d21">
    <mxGraphModel dx="1942" dy="1869" grid="1" gridSize="10" guides="1" tooltips="1" connect="1" arrows="1" fold="1" page="1" pageScale="1" pageWidth="827" pageHeight="1169" background="none" math="0" shadow="0">
      <root>
        <mxCell id="0" />
        <mxCell id="1" parent="0" />
        <mxCell id="Tg1yt5In8eh9C-JUA-hk-35" value="&lt;b&gt;Traffic Light Service&lt;/b&gt;" style="html=1;dropTarget=0;whiteSpace=wrap;align=center;verticalAlign=top;" vertex="1" parent="1">
          <mxGeometry x="10" y="80" width="610" height="520" as="geometry" />
        </mxCell>
        <mxCell id="Tg1yt5In8eh9C-JUA-hk-36" value="" style="shape=module;jettyWidth=8;jettyHeight=4;" vertex="1" parent="Tg1yt5In8eh9C-JUA-hk-35">
          <mxGeometry x="1" width="20" height="20" relative="1" as="geometry">
            <mxPoint x="-27" y="7" as="offset" />
          </mxGeometry>
        </mxCell>
        <mxCell id="Tg1yt5In8eh9C-JUA-hk-2" value="" style="ellipse;whiteSpace=wrap;html=1;align=center;aspect=fixed;fillColor=none;strokeColor=none;resizable=0;perimeter=centerPerimeter;rotatable=0;allowArrows=0;points=[];outlineConnect=1;" vertex="1" parent="1">
          <mxGeometry x="580" y="350" width="10" height="10" as="geometry" />
        </mxCell>
        <mxCell id="Tg1yt5In8eh9C-JUA-hk-9" value="«Component»&lt;br&gt;&lt;b&gt;Apache Kafka&lt;/b&gt;&lt;div&gt;&lt;b&gt;Cluster&lt;/b&gt;&lt;/div&gt;" style="html=1;dropTarget=0;whiteSpace=wrap;" vertex="1" parent="1">
          <mxGeometry x="360" y="240" width="180" height="90" as="geometry" />
        </mxCell>
        <mxCell id="Tg1yt5In8eh9C-JUA-hk-10" value="" style="shape=module;jettyWidth=8;jettyHeight=4;" vertex="1" parent="Tg1yt5In8eh9C-JUA-hk-9">
          <mxGeometry x="1" width="20" height="20" relative="1" as="geometry">
            <mxPoint x="-27" y="7" as="offset" />
          </mxGeometry>
        </mxCell>
        <mxCell id="Tg1yt5In8eh9C-JUA-hk-12" value="&lt;b&gt;Traffic Light&lt;/b&gt;&lt;div&gt;&lt;b&gt;Sensor&lt;/b&gt;&lt;/div&gt;" style="text;html=1;align=center;verticalAlign=middle;resizable=0;points=[];autosize=1;strokeColor=none;fillColor=none;" vertex="1" parent="1">
          <mxGeometry x="700" y="245" width="90" height="40" as="geometry" />
        </mxCell>
        <mxCell id="Tg1yt5In8eh9C-JUA-hk-13" value="" style="rounded=0;orthogonalLoop=1;jettySize=auto;html=1;endArrow=halfCircle;endFill=0;endSize=6;strokeWidth=1;sketch=0;fontSize=12;curved=1;exitX=1;exitY=0.25;exitDx=0;exitDy=0;" edge="1" parent="1" source="Tg1yt5In8eh9C-JUA-hk-9">
          <mxGeometry relative="1" as="geometry">
            <mxPoint x="655" y="405" as="sourcePoint" />
            <mxPoint x="700" y="263" as="targetPoint" />
          </mxGeometry>
        </mxCell>
        <mxCell id="Tg1yt5In8eh9C-JUA-hk-14" value="" style="ellipse;whiteSpace=wrap;html=1;align=center;aspect=fixed;fillColor=none;strokeColor=none;resizable=0;perimeter=centerPerimeter;rotatable=0;allowArrows=0;points=[];outlineConnect=1;" vertex="1" parent="1">
          <mxGeometry x="630" y="400" width="10" height="10" as="geometry" />
        </mxCell>
        <mxCell id="Tg1yt5In8eh9C-JUA-hk-15" value="" style="rounded=0;orthogonalLoop=1;jettySize=auto;html=1;endArrow=halfCircle;endFill=0;endSize=6;strokeWidth=1;sketch=0;exitX=1;exitY=0.25;exitDx=0;exitDy=0;" edge="1" target="Tg1yt5In8eh9C-JUA-hk-17" parent="1" source="Tg1yt5In8eh9C-JUA-hk-18">
          <mxGeometry relative="1" as="geometry">
            <mxPoint x="420" y="345" as="sourcePoint" />
          </mxGeometry>
        </mxCell>
        <mxCell id="Tg1yt5In8eh9C-JUA-hk-16" value="" style="rounded=0;orthogonalLoop=1;jettySize=auto;html=1;endArrow=oval;endFill=0;sketch=0;sourcePerimeterSpacing=0;targetPerimeterSpacing=0;endSize=10;exitX=0;exitY=0.25;exitDx=0;exitDy=0;entryX=0.5;entryY=1.233;entryDx=0;entryDy=0;entryPerimeter=0;" edge="1" target="Tg1yt5In8eh9C-JUA-hk-17" parent="1" source="Tg1yt5In8eh9C-JUA-hk-9">
          <mxGeometry relative="1" as="geometry">
            <mxPoint x="380" y="345" as="sourcePoint" />
            <mxPoint x="320" y="230" as="targetPoint" />
          </mxGeometry>
        </mxCell>
        <mxCell id="Tg1yt5In8eh9C-JUA-hk-17" value="" style="ellipse;whiteSpace=wrap;html=1;align=center;aspect=fixed;fillColor=none;strokeColor=none;resizable=0;perimeter=centerPerimeter;rotatable=0;allowArrows=0;points=[];outlineConnect=1;" vertex="1" parent="1">
          <mxGeometry x="310" y="220" width="10" height="10" as="geometry" />
        </mxCell>
        <mxCell id="Tg1yt5In8eh9C-JUA-hk-18" value="«Component»&lt;br&gt;&lt;b&gt;TrafficPatternManager&lt;/b&gt;" style="html=1;dropTarget=0;whiteSpace=wrap;" vertex="1" parent="1">
          <mxGeometry x="80" y="150" width="180" height="90" as="geometry" />
        </mxCell>
        <mxCell id="Tg1yt5In8eh9C-JUA-hk-19" value="" style="shape=module;jettyWidth=8;jettyHeight=4;" vertex="1" parent="Tg1yt5In8eh9C-JUA-hk-18">
          <mxGeometry x="1" width="20" height="20" relative="1" as="geometry">
            <mxPoint x="-27" y="7" as="offset" />
          </mxGeometry>
        </mxCell>
        <mxCell id="Tg1yt5In8eh9C-JUA-hk-21" value="«Component»&lt;br&gt;&lt;b&gt;TrafficLightManager&lt;/b&gt;" style="html=1;dropTarget=0;whiteSpace=wrap;" vertex="1" parent="1">
          <mxGeometry x="80" y="400" width="180" height="90" as="geometry" />
        </mxCell>
        <mxCell id="Tg1yt5In8eh9C-JUA-hk-22" value="" style="shape=module;jettyWidth=8;jettyHeight=4;" vertex="1" parent="Tg1yt5In8eh9C-JUA-hk-21">
          <mxGeometry x="1" width="20" height="20" relative="1" as="geometry">
            <mxPoint x="-27" y="7" as="offset" />
          </mxGeometry>
        </mxCell>
        <mxCell id="Tg1yt5In8eh9C-JUA-hk-23" value="" style="rounded=0;orthogonalLoop=1;jettySize=auto;html=1;endArrow=halfCircle;endFill=0;endSize=6;strokeWidth=1;sketch=0;exitX=1;exitY=0.5;exitDx=0;exitDy=0;" edge="1" parent="1" source="Tg1yt5In8eh9C-JUA-hk-21">
          <mxGeometry relative="1" as="geometry">
            <mxPoint x="400" y="345" as="sourcePoint" />
            <mxPoint x="310" y="370" as="targetPoint" />
          </mxGeometry>
        </mxCell>
        <mxCell id="Tg1yt5In8eh9C-JUA-hk-24" value="" style="rounded=0;orthogonalLoop=1;jettySize=auto;html=1;endArrow=oval;endFill=0;sketch=0;sourcePerimeterSpacing=0;targetPerimeterSpacing=0;endSize=10;exitX=0;exitY=0.683;exitDx=0;exitDy=0;exitPerimeter=0;" edge="1" parent="1" source="Tg1yt5In8eh9C-JUA-hk-9">
          <mxGeometry relative="1" as="geometry">
            <mxPoint x="360" y="345" as="sourcePoint" />
            <mxPoint x="310" y="370" as="targetPoint" />
          </mxGeometry>
        </mxCell>
        <mxCell id="Tg1yt5In8eh9C-JUA-hk-25" value="" style="ellipse;whiteSpace=wrap;html=1;align=center;aspect=fixed;fillColor=none;strokeColor=none;resizable=0;perimeter=centerPerimeter;rotatable=0;allowArrows=0;points=[];outlineConnect=1;" vertex="1" parent="1">
          <mxGeometry x="375" y="340" width="10" height="10" as="geometry" />
        </mxCell>
        <mxCell id="Tg1yt5In8eh9C-JUA-hk-31" value="" style="ellipse;whiteSpace=wrap;html=1;align=center;aspect=fixed;fillColor=none;strokeColor=none;resizable=0;perimeter=centerPerimeter;rotatable=0;allowArrows=0;points=[];outlineConnect=1;" vertex="1" parent="1">
          <mxGeometry x="195" y="20" width="10" height="10" as="geometry" />
        </mxCell>
        <mxCell id="Tg1yt5In8eh9C-JUA-hk-34" value="&lt;b&gt;Database&lt;/b&gt;&lt;div&gt;&lt;b&gt;Service&lt;/b&gt;&lt;/div&gt;" style="text;html=1;align=center;verticalAlign=middle;resizable=0;points=[];autosize=1;strokeColor=none;fillColor=none;" vertex="1" parent="1">
          <mxGeometry x="130" y="-10" width="80" height="40" as="geometry" />
        </mxCell>
        <mxCell id="Tg1yt5In8eh9C-JUA-hk-37" value="" style="html=1;rounded=0;rotation=-90;" vertex="1" parent="1">
          <mxGeometry x="155" y="66" width="30" height="30" as="geometry" />
        </mxCell>
        <mxCell id="Tg1yt5In8eh9C-JUA-hk-42" value="" style="rounded=0;orthogonalLoop=1;jettySize=auto;html=1;endArrow=halfCircle;endFill=0;endSize=6;strokeWidth=1;sketch=0;fontSize=12;curved=1;exitX=1;exitY=0.5;exitDx=0;exitDy=0;entryX=0.513;entryY=1;entryDx=0;entryDy=0;entryPerimeter=0;" edge="1" target="Tg1yt5In8eh9C-JUA-hk-34" parent="1" source="Tg1yt5In8eh9C-JUA-hk-37">
          <mxGeometry relative="1" as="geometry">
            <mxPoint x="45" y="265" as="sourcePoint" />
          </mxGeometry>
        </mxCell>
        <mxCell id="Tg1yt5In8eh9C-JUA-hk-43" value="" style="ellipse;whiteSpace=wrap;html=1;align=center;aspect=fixed;fillColor=none;strokeColor=none;resizable=0;perimeter=centerPerimeter;rotatable=0;allowArrows=0;points=[];outlineConnect=1;" vertex="1" parent="1">
          <mxGeometry x="20" y="260" width="10" height="10" as="geometry" />
        </mxCell>
        <mxCell id="Tg1yt5In8eh9C-JUA-hk-44" value="«Component»&lt;br&gt;&lt;b&gt;EventManager&lt;/b&gt;" style="html=1;dropTarget=0;whiteSpace=wrap;" vertex="1" parent="1">
          <mxGeometry x="80" y="295" width="180" height="90" as="geometry" />
        </mxCell>
        <mxCell id="Tg1yt5In8eh9C-JUA-hk-45" value="" style="shape=module;jettyWidth=8;jettyHeight=4;" vertex="1" parent="Tg1yt5In8eh9C-JUA-hk-44">
          <mxGeometry x="1" width="20" height="20" relative="1" as="geometry">
            <mxPoint x="-27" y="7" as="offset" />
          </mxGeometry>
        </mxCell>
        <mxCell id="Tg1yt5In8eh9C-JUA-hk-46" value="" style="rounded=0;orthogonalLoop=1;jettySize=auto;html=1;endArrow=halfCircle;endFill=0;endSize=6;strokeWidth=1;sketch=0;exitX=1;exitY=0.5;exitDx=0;exitDy=0;entryX=-0.15;entryY=0.833;entryDx=0;entryDy=0;entryPerimeter=0;" edge="1" target="Tg1yt5In8eh9C-JUA-hk-48" parent="1" source="Tg1yt5In8eh9C-JUA-hk-44">
          <mxGeometry relative="1" as="geometry">
            <mxPoint x="260" y="315" as="sourcePoint" />
          </mxGeometry>
        </mxCell>
        <mxCell id="Tg1yt5In8eh9C-JUA-hk-47" value="" style="rounded=0;orthogonalLoop=1;jettySize=auto;html=1;endArrow=oval;endFill=0;sketch=0;sourcePerimeterSpacing=0;targetPerimeterSpacing=0;endSize=10;exitX=0;exitY=0.5;exitDx=0;exitDy=0;" edge="1" target="Tg1yt5In8eh9C-JUA-hk-48" parent="1" source="Tg1yt5In8eh9C-JUA-hk-9">
          <mxGeometry relative="1" as="geometry">
            <mxPoint x="10" y="445" as="sourcePoint" />
          </mxGeometry>
        </mxCell>
        <mxCell id="Tg1yt5In8eh9C-JUA-hk-48" value="" style="ellipse;whiteSpace=wrap;html=1;align=center;aspect=fixed;fillColor=none;strokeColor=none;resizable=0;perimeter=centerPerimeter;rotatable=0;allowArrows=0;points=[];outlineConnect=1;" vertex="1" parent="1">
          <mxGeometry x="280" y="290" width="10" height="10" as="geometry" />
        </mxCell>
        <mxCell id="Tg1yt5In8eh9C-JUA-hk-49" value="" style="rounded=0;orthogonalLoop=1;jettySize=auto;html=1;endArrow=halfCircle;endFill=0;endSize=6;strokeWidth=1;sketch=0;exitX=0.5;exitY=0;exitDx=0;exitDy=0;" edge="1" parent="1" source="Tg1yt5In8eh9C-JUA-hk-44">
          <mxGeometry relative="1" as="geometry">
            <mxPoint x="150" y="335" as="sourcePoint" />
            <mxPoint x="170" y="270" as="targetPoint" />
          </mxGeometry>
        </mxCell>
        <mxCell id="Tg1yt5In8eh9C-JUA-hk-50" value="" style="rounded=0;orthogonalLoop=1;jettySize=auto;html=1;endArrow=oval;endFill=0;sketch=0;sourcePerimeterSpacing=0;targetPerimeterSpacing=0;endSize=10;exitX=0.5;exitY=1;exitDx=0;exitDy=0;" edge="1" parent="1" source="Tg1yt5In8eh9C-JUA-hk-18">
          <mxGeometry relative="1" as="geometry">
            <mxPoint x="110" y="335" as="sourcePoint" />
            <mxPoint x="170" y="270" as="targetPoint" />
          </mxGeometry>
        </mxCell>
        <mxCell id="Tg1yt5In8eh9C-JUA-hk-51" value="" style="ellipse;whiteSpace=wrap;html=1;align=center;aspect=fixed;fillColor=none;strokeColor=none;resizable=0;perimeter=centerPerimeter;rotatable=0;allowArrows=0;points=[];outlineConnect=1;" vertex="1" parent="1">
          <mxGeometry x="125" y="330" width="10" height="10" as="geometry" />
        </mxCell>
        <mxCell id="Tg1yt5In8eh9C-JUA-hk-53" value="" style="rounded=0;orthogonalLoop=1;jettySize=auto;html=1;endArrow=halfCircle;endFill=0;endSize=6;strokeWidth=1;sketch=0;exitX=0.5;exitY=0;exitDx=0;exitDy=0;" edge="1" parent="1" source="Tg1yt5In8eh9C-JUA-hk-18">
          <mxGeometry relative="1" as="geometry">
            <mxPoint x="240" y="335" as="sourcePoint" />
            <mxPoint x="170" y="110" as="targetPoint" />
          </mxGeometry>
        </mxCell>
        <mxCell id="Tg1yt5In8eh9C-JUA-hk-54" value="" style="rounded=0;orthogonalLoop=1;jettySize=auto;html=1;endArrow=oval;endFill=0;sketch=0;sourcePerimeterSpacing=0;targetPerimeterSpacing=0;endSize=10;exitX=0;exitY=0.5;exitDx=0;exitDy=0;" edge="1" parent="1" source="Tg1yt5In8eh9C-JUA-hk-37">
          <mxGeometry relative="1" as="geometry">
            <mxPoint x="200" y="335" as="sourcePoint" />
            <mxPoint x="170" y="110" as="targetPoint" />
          </mxGeometry>
        </mxCell>
        <mxCell id="Tg1yt5In8eh9C-JUA-hk-55" value="" style="ellipse;whiteSpace=wrap;html=1;align=center;aspect=fixed;fillColor=none;strokeColor=none;resizable=0;perimeter=centerPerimeter;rotatable=0;allowArrows=0;points=[];outlineConnect=1;" vertex="1" parent="1">
          <mxGeometry x="215" y="330" width="10" height="10" as="geometry" />
        </mxCell>
        <mxCell id="Tg1yt5In8eh9C-JUA-hk-57" value="" style="html=1;rounded=0;flipH=1;flipV=0;direction=east;rotation=90;" vertex="1" parent="1">
          <mxGeometry x="155" y="590" width="30" height="30" as="geometry" />
        </mxCell>
        <mxCell id="Tg1yt5In8eh9C-JUA-hk-58" value="" style="endArrow=none;html=1;rounded=0;align=center;verticalAlign=top;endFill=0;labelBackgroundColor=none;endSize=2;" edge="1" source="Tg1yt5In8eh9C-JUA-hk-59" parent="1">
          <mxGeometry relative="1" as="geometry">
            <mxPoint x="170" y="670" as="targetPoint" />
          </mxGeometry>
        </mxCell>
        <mxCell id="Tg1yt5In8eh9C-JUA-hk-60" value="" style="endArrow=none;html=1;rounded=0;align=center;verticalAlign=top;endFill=0;labelBackgroundColor=none;endSize=2;" edge="1" parent="1" source="Tg1yt5In8eh9C-JUA-hk-57" target="Tg1yt5In8eh9C-JUA-hk-59">
          <mxGeometry relative="1" as="geometry">
            <mxPoint x="170" y="620" as="sourcePoint" />
            <mxPoint x="170" y="670" as="targetPoint" />
          </mxGeometry>
        </mxCell>
        <mxCell id="Tg1yt5In8eh9C-JUA-hk-59" value="" style="shape=requiredInterface;html=1;fontSize=11;align=center;fillColor=none;points=[];aspect=fixed;resizable=0;verticalAlign=bottom;labelPosition=center;verticalLabelPosition=top;flipH=1;flipV=0;rotation=90;" vertex="1" parent="1">
          <mxGeometry x="167.5" y="670" width="5" height="10" as="geometry" />
        </mxCell>
        <mxCell id="Tg1yt5In8eh9C-JUA-hk-61" value="&lt;b&gt;Traffic Light&lt;/b&gt;&lt;div&gt;&lt;b&gt;Control System&lt;/b&gt;&lt;/div&gt;" style="text;html=1;align=center;verticalAlign=middle;resizable=0;points=[];autosize=1;strokeColor=none;fillColor=none;" vertex="1" parent="1">
          <mxGeometry x="115" y="680" width="110" height="40" as="geometry" />
        </mxCell>
        <mxCell id="Tg1yt5In8eh9C-JUA-hk-67" value="" style="rounded=0;orthogonalLoop=1;jettySize=auto;html=1;endArrow=halfCircle;endFill=0;endSize=6;strokeWidth=1;sketch=0;exitX=0.5;exitY=1;exitDx=0;exitDy=0;" edge="1" target="Tg1yt5In8eh9C-JUA-hk-69" parent="1" source="Tg1yt5In8eh9C-JUA-hk-21">
          <mxGeometry relative="1" as="geometry">
            <mxPoint x="270" y="1185" as="sourcePoint" />
          </mxGeometry>
        </mxCell>
        <mxCell id="Tg1yt5In8eh9C-JUA-hk-68" value="" style="rounded=0;orthogonalLoop=1;jettySize=auto;html=1;endArrow=oval;endFill=0;sketch=0;sourcePerimeterSpacing=0;targetPerimeterSpacing=0;endSize=10;exitX=0;exitY=0.5;exitDx=0;exitDy=0;" edge="1" target="Tg1yt5In8eh9C-JUA-hk-69" parent="1" source="Tg1yt5In8eh9C-JUA-hk-57">
          <mxGeometry relative="1" as="geometry">
            <mxPoint x="230" y="1185" as="sourcePoint" />
          </mxGeometry>
        </mxCell>
        <mxCell id="Tg1yt5In8eh9C-JUA-hk-69" value="" style="ellipse;whiteSpace=wrap;html=1;align=center;aspect=fixed;fillColor=none;strokeColor=none;resizable=0;perimeter=centerPerimeter;rotatable=0;allowArrows=0;points=[];outlineConnect=1;" vertex="1" parent="1">
          <mxGeometry x="165" y="530" width="10" height="10" as="geometry" />
        </mxCell>
        <mxCell id="Tg1yt5In8eh9C-JUA-hk-70" value="" style="html=1;rounded=0;" vertex="1" parent="1">
          <mxGeometry x="-5" y="430" width="30" height="30" as="geometry" />
        </mxCell>
        <mxCell id="Tg1yt5In8eh9C-JUA-hk-71" value="" style="endArrow=none;html=1;rounded=0;align=center;verticalAlign=top;endFill=0;labelBackgroundColor=none;endSize=2;" edge="1" source="Tg1yt5In8eh9C-JUA-hk-70" target="Tg1yt5In8eh9C-JUA-hk-72" parent="1">
          <mxGeometry relative="1" as="geometry" />
        </mxCell>
        <mxCell id="Tg1yt5In8eh9C-JUA-hk-72" value="" style="shape=requiredInterface;html=1;fontSize=11;align=center;fillColor=none;points=[];aspect=fixed;resizable=0;verticalAlign=bottom;labelPosition=center;verticalLabelPosition=top;flipH=1;rotation=-180;" vertex="1" parent="1">
          <mxGeometry x="-50" y="440" width="5" height="10" as="geometry" />
        </mxCell>
        <mxCell id="Tg1yt5In8eh9C-JUA-hk-73" value="&lt;b&gt;Database&lt;/b&gt;&lt;div&gt;&lt;b&gt;Service&lt;/b&gt;&lt;/div&gt;" style="text;html=1;align=center;verticalAlign=middle;resizable=0;points=[];autosize=1;strokeColor=none;fillColor=none;" vertex="1" parent="1">
          <mxGeometry x="-125" y="425" width="80" height="40" as="geometry" />
        </mxCell>
        <mxCell id="Tg1yt5In8eh9C-JUA-hk-74" value="" style="rounded=0;orthogonalLoop=1;jettySize=auto;html=1;endArrow=halfCircle;endFill=0;endSize=6;strokeWidth=1;sketch=0;" edge="1" target="Tg1yt5In8eh9C-JUA-hk-76" parent="1" source="Tg1yt5In8eh9C-JUA-hk-21">
          <mxGeometry relative="1" as="geometry">
            <mxPoint x="180" y="715" as="sourcePoint" />
          </mxGeometry>
        </mxCell>
        <mxCell id="Tg1yt5In8eh9C-JUA-hk-75" value="" style="rounded=0;orthogonalLoop=1;jettySize=auto;html=1;endArrow=oval;endFill=0;sketch=0;sourcePerimeterSpacing=0;targetPerimeterSpacing=0;endSize=10;exitX=1;exitY=0.5;exitDx=0;exitDy=0;" edge="1" target="Tg1yt5In8eh9C-JUA-hk-76" parent="1" source="Tg1yt5In8eh9C-JUA-hk-70">
          <mxGeometry relative="1" as="geometry">
            <mxPoint x="140" y="715" as="sourcePoint" />
          </mxGeometry>
        </mxCell>
        <mxCell id="Tg1yt5In8eh9C-JUA-hk-76" value="" style="ellipse;whiteSpace=wrap;html=1;align=center;aspect=fixed;fillColor=none;strokeColor=none;resizable=0;perimeter=centerPerimeter;rotatable=0;allowArrows=0;points=[];outlineConnect=1;" vertex="1" parent="1">
          <mxGeometry x="50" y="440" width="10" height="10" as="geometry" />
        </mxCell>
        <mxCell id="Tg1yt5In8eh9C-JUA-hk-77" value="" style="html=1;rounded=0;" vertex="1" parent="1">
          <mxGeometry x="-5" y="180" width="30" height="30" as="geometry" />
        </mxCell>
        <mxCell id="Tg1yt5In8eh9C-JUA-hk-78" value="" style="endArrow=none;html=1;rounded=0;align=center;verticalAlign=top;endFill=0;labelBackgroundColor=none;endSize=2;" edge="1" parent="1" source="Tg1yt5In8eh9C-JUA-hk-77" target="Tg1yt5In8eh9C-JUA-hk-79">
          <mxGeometry relative="1" as="geometry" />
        </mxCell>
        <mxCell id="Tg1yt5In8eh9C-JUA-hk-79" value="" style="shape=requiredInterface;html=1;fontSize=11;align=center;fillColor=none;points=[];aspect=fixed;resizable=0;verticalAlign=bottom;labelPosition=center;verticalLabelPosition=top;flipH=1;rotation=-180;" vertex="1" parent="1">
          <mxGeometry x="-50" y="190" width="5" height="10" as="geometry" />
        </mxCell>
        <mxCell id="Tg1yt5In8eh9C-JUA-hk-80" value="&lt;b&gt;Web&lt;/b&gt;&lt;div&gt;&lt;b&gt;Service&lt;/b&gt;&lt;/div&gt;" style="text;html=1;align=center;verticalAlign=middle;resizable=0;points=[];autosize=1;strokeColor=none;fillColor=none;" vertex="1" parent="1">
          <mxGeometry x="-120" y="175" width="70" height="40" as="geometry" />
        </mxCell>
        <mxCell id="Tg1yt5In8eh9C-JUA-hk-81" value="" style="rounded=0;orthogonalLoop=1;jettySize=auto;html=1;endArrow=halfCircle;endFill=0;endSize=6;strokeWidth=1;sketch=0;" edge="1" parent="1" target="Tg1yt5In8eh9C-JUA-hk-83">
          <mxGeometry relative="1" as="geometry">
            <mxPoint x="80" y="195" as="sourcePoint" />
          </mxGeometry>
        </mxCell>
        <mxCell id="Tg1yt5In8eh9C-JUA-hk-82" value="" style="rounded=0;orthogonalLoop=1;jettySize=auto;html=1;endArrow=oval;endFill=0;sketch=0;sourcePerimeterSpacing=0;targetPerimeterSpacing=0;endSize=10;exitX=1;exitY=0.5;exitDx=0;exitDy=0;" edge="1" parent="1" source="Tg1yt5In8eh9C-JUA-hk-77" target="Tg1yt5In8eh9C-JUA-hk-83">
          <mxGeometry relative="1" as="geometry">
            <mxPoint x="140" y="465" as="sourcePoint" />
          </mxGeometry>
        </mxCell>
        <mxCell id="Tg1yt5In8eh9C-JUA-hk-83" value="" style="ellipse;whiteSpace=wrap;html=1;align=center;aspect=fixed;fillColor=none;strokeColor=none;resizable=0;perimeter=centerPerimeter;rotatable=0;allowArrows=0;points=[];outlineConnect=1;" vertex="1" parent="1">
          <mxGeometry x="50" y="190" width="10" height="10" as="geometry" />
        </mxCell>
        <mxCell id="Tg1yt5In8eh9C-JUA-hk-84" value="" style="html=1;rounded=0;flipH=1;flipV=0;direction=east;rotation=90;" vertex="1" parent="1">
          <mxGeometry x="441.5" y="584.5" width="30" height="30" as="geometry" />
        </mxCell>
        <mxCell id="Tg1yt5In8eh9C-JUA-hk-86" value="" style="endArrow=none;html=1;rounded=0;align=center;verticalAlign=top;endFill=0;labelBackgroundColor=none;endSize=2;" edge="1" parent="1" source="Tg1yt5In8eh9C-JUA-hk-84" target="Tg1yt5In8eh9C-JUA-hk-87">
          <mxGeometry relative="1" as="geometry">
            <mxPoint x="469" y="610" as="sourcePoint" />
            <mxPoint x="469" y="660" as="targetPoint" />
          </mxGeometry>
        </mxCell>
        <mxCell id="Tg1yt5In8eh9C-JUA-hk-87" value="" style="shape=requiredInterface;html=1;fontSize=11;align=center;fillColor=none;points=[];aspect=fixed;resizable=0;verticalAlign=bottom;labelPosition=center;verticalLabelPosition=top;flipH=1;flipV=0;rotation=90;" vertex="1" parent="1">
          <mxGeometry x="454" y="660" width="5" height="10" as="geometry" />
        </mxCell>
        <mxCell id="Tg1yt5In8eh9C-JUA-hk-88" value="&lt;b&gt;News&lt;/b&gt;&lt;div&gt;&lt;b&gt;Channel&lt;/b&gt;&lt;/div&gt;" style="text;html=1;align=center;verticalAlign=middle;resizable=0;points=[];autosize=1;strokeColor=none;fillColor=none;" vertex="1" parent="1">
          <mxGeometry x="421.5" y="670" width="70" height="40" as="geometry" />
        </mxCell>
        <mxCell id="Tg1yt5In8eh9C-JUA-hk-89" value="" style="rounded=0;orthogonalLoop=1;jettySize=auto;html=1;endArrow=halfCircle;endFill=0;endSize=6;strokeWidth=1;sketch=0;exitX=0.5;exitY=1;exitDx=0;exitDy=0;" edge="1" parent="1" target="Tg1yt5In8eh9C-JUA-hk-91" source="Tg1yt5In8eh9C-JUA-hk-9">
          <mxGeometry relative="1" as="geometry">
            <mxPoint x="469" y="480" as="sourcePoint" />
          </mxGeometry>
        </mxCell>
        <mxCell id="Tg1yt5In8eh9C-JUA-hk-90" value="" style="rounded=0;orthogonalLoop=1;jettySize=auto;html=1;endArrow=oval;endFill=0;sketch=0;sourcePerimeterSpacing=0;targetPerimeterSpacing=0;endSize=10;exitX=0;exitY=0.5;exitDx=0;exitDy=0;" edge="1" parent="1" source="Tg1yt5In8eh9C-JUA-hk-84" target="Tg1yt5In8eh9C-JUA-hk-91">
          <mxGeometry relative="1" as="geometry">
            <mxPoint x="529" y="1175" as="sourcePoint" />
          </mxGeometry>
        </mxCell>
        <mxCell id="Tg1yt5In8eh9C-JUA-hk-91" value="" style="ellipse;whiteSpace=wrap;html=1;align=center;aspect=fixed;fillColor=none;strokeColor=none;resizable=0;perimeter=centerPerimeter;rotatable=0;allowArrows=0;points=[];outlineConnect=1;" vertex="1" parent="1">
          <mxGeometry x="451.5" y="520" width="10" height="10" as="geometry" />
        </mxCell>
      </root>
    </mxGraphModel>
  </diagram>
</mxfile>
